<svg width="55" height="56" fill="none" xmlns="http://www.w3.org/2000/svg"><path d="M30.123 29.665L6.016 20.91c-3.572-1.297-7.035 2.166-5.738 5.738l8.756 24.107c.713 1.964 3.392 2.207 4.447.404l2.735-4.673 6.878 6.878a6.815 6.815 0 109.638-9.638l-6.878-6.878 4.673-2.735c1.803-1.055 1.56-3.734-.404-4.447z" fill="#EBEBEB"/><path d="M5.085 26.647l8.709 23.977-.313.535c-1.055 1.803-3.733 1.559-4.447-.405L.278 26.647c-1.297-3.572 2.166-7.035 5.738-5.738l.986.358c-1.715 1.035-2.714 3.187-1.917 5.38zm25.232 28.276a6.818 6.818 0 01-7.223-1.56l-6.878-6.878a2.712 2.712 0 014.259-.548l7.426 7.427a6.782 6.782 0 002.416 1.559z" fill="#C3C3C3"/><path d="M41.704 32.676a3.652 3.652 0 01-3.651-3.651v-1.55c0-3.604 2.27-6.828 5.648-8.023a6.025 6.025 0 003.981-6.11c-.215-2.957-2.608-5.332-5.567-5.526-3.129-.206-5.917 2.053-6.347 5.141-.04.278-.059.56-.058.84a3.652 3.652 0 11-7.304 0c0-.618.043-1.24.128-1.85C29.491 5.092 35.666.075 42.592.53c6.576.43 11.895 5.71 12.375 12.281.435 5.973-3.197 11.536-8.832 13.528-.466.165-.78.622-.78 1.138v1.549a3.652 3.652 0 01-3.65 3.651zm0 10.866a3.652 3.652 0 01-3.651-3.652v-.03a3.652 3.652 0 017.303 0v.03a3.652 3.652 0 01-3.652 3.652z" fill="#1E9D7D"/><path d="M31.755 11.949c-.086.613-.128 1.23-.128 1.85 0 1.437.83 2.68 2.037 3.275a3.652 3.652 0 01-5.266-3.276c0-.618.044-1.24.13-1.85C29.484 5.09 35.66.075 42.586.529c.248.017.494.04.738.072-5.864.722-10.728 5.326-11.57 11.349zm15.166 7.504c-3.378 1.194-5.649 4.42-5.649 8.023v1.549a3.65 3.65 0 002.04 3.276 3.65 3.65 0 01-5.266-3.276v-1.549c0-3.604 2.269-6.829 5.649-8.023a6.024 6.024 0 003.98-6.11c-.185-2.54-1.976-4.65-4.352-5.316a5.968 5.968 0 012.013-.21c2.959.194 5.352 2.569 5.567 5.525a6.025 6.025 0 01-3.982 6.11zm-3.61 23.713a3.65 3.65 0 01-5.266-3.276v-.03a3.652 3.652 0 015.267-3.276 3.654 3.654 0 00-2.04 3.275v.032a3.65 3.65 0 002.04 3.275z" fill="#007F5F"/></svg>