<svg width="55" height="55" fill="none" xmlns="http://www.w3.org/2000/svg"><path d="M47.626 22.626H37.531v-1.614l1.235-.905 4.144-.906 5.622.906v1.342l-.906 1.177z" fill="#EDF6FF"/><path d="M38.765 20.997v-.89l-1.032-.906-1.108.906v3.425l5.853.905 6.053-.905v-2.083h-9.313a.453.453 0 01-.453-.453z" fill="#DCE9E5"/><path d="M26.227 19.617H9.695v-2.373l1.326-.906 7.601-.905 8.51.905v1.92l-.905 1.359z" fill="#E6F3EF"/><path d="M11.023 17.806v-1.468l-1.09-.905-1.16.905v5.09h18.36v-3.17H11.475a.453.453 0 01-.452-.452z" fill="#DCE9E5"/><path d="M38.272 33.904l-1.811-1.518v-6.49a1.36 1.36 0 01.454-1.013l1.45-1.226.518-.126h9.642l1.516 1.352a1.359 1.359 0 01.454 1.014v6.92l-.905 1.426-11.318-.339z" fill="#E6F3EF"/><path d="M36.92 32.47v-6.573c0-.388.165-.756.454-1.014l1.515-1.352h-2.263l-1.516 1.352a1.359 1.359 0 00-.454 1.014v6.376l.906 1.631 1.358-1.435z" fill="#DCE9E5"/><path d="M49.59 34.243l.905 1.29v10.711c0 1-.81 1.811-1.811 1.811H38.272c-1 0-1.811-.81-1.811-1.81v-12.34l13.129.338z" fill="#73B9A7"/><path d="M48.769 18.863H37.476a.905.905 0 01-.906-.905v-2.042c0-.5.665-.905 1.165-.905H48.77c.5 0 .905.405.905.905v1.834c0 .5-.405 1.113-.905 1.113z" fill="#EDF6FF"/><path d="M38.193 17.75a.453.453 0 01-.453-.452V15.01h-1.358c-.5 0-.905.405-.905.905V19.2c0 .5.405.905.905.905h2.383l3.744-.905 3.879.905h2.386c.5 0 .905-.405.905-.905v-1.45h-3.076l-4.11.905-3.94-.905h-.36z" fill="#DCE9E5"/><path d="M46.39 15.579h-6.17l-.323-2.983c-.073-.796.532-1.483.532-1.483h5.295a1.36 1.36 0 011.353 1.483l-.22 2.414-.466.569z" fill="#F2D1A5"/><path d="M40.775 15.01l-.356-3.897h-.99c-.8 0-1.426.686-1.353 1.482l.22 2.415 1.147.709 1.332-.709z" fill="#F2BB88"/><path d="M40.29 15.916l.283 2.38h5.809l.215-.546.25-2.74h-6.071l-.487.906z" fill="#FFE4C2"/><path d="M38.767 20.107h7.622l.215-2.357-5.157.002a.452.452 0 01-.451-.411l-.213-2.33h-2.478l.462 5.096z" fill="#F2D1A5"/><path d="M29.494 27.093l.906 1.268V45.34a2.264 2.264 0 01-2.264 2.264H8.67a2.264 2.264 0 01-2.264-2.264V26.95l23.088.144z" fill="#73B9A7"/><path d="M7.764 45.34V28.495l-.906-1.535-.453-.013L5.5 28.36v17.884a2.264 2.264 0 002.264 2.263h20.371a2.264 2.264 0 002.264-2.264H8.669a.905.905 0 01-.905-.905z" fill="#339F83"/><path d="M6.96 26.948v-4.615c0-1 .82-1.786 1.82-1.786l.756-.024H28.59c1 0 1.811.81 1.811 1.81v3.31l-.905 1.45-22.535-.145z" fill="#E6F3EF"/><path d="M7.764 25.78v-3.446c0-1 .81-1.81 1.81-1.81H7.311c-1 0-1.811.81-1.811 1.81v3.311l1.087 1.81 1.177-1.675z" fill="#DCE9E5"/><path d="M27.985 15.21H9.132a.905.905 0 01-.905-.905v-3.203c0-.5.532-.906 1.032-.906h18.726c.5 0 .905.406.905.906v2.972c0 .5-.405 1.136-.905 1.136z" fill="#E6F3EF"/><path d="M9.724 14.074a.453.453 0 01-.453-.453v-3.425H7.913c-.5 0-.905.406-.905.906v4.33c0 .5.405.906.905.906h3.107l6.708-.906 7.154.906h3.107c.5 0 .905-.406.905-.906v-1.358h-3.93l-7.16.906-6.865-.906H9.724z" fill="#DCE9E5"/><path d="M20.352 10.905h-4.807l-4.145-.71-.102-2.547c-.037-1.026.646-2.148 1.672-2.148h10.425c1.025 0 1.846.852 1.81 1.877l-.103 2.82-4.75.708z" fill="#F2D1A5"/><path d="M13.137 10.197l-.17-4.697h-.469a1.81 1.81 0 00-1.81 1.877l.103 2.82 1.228.806 1.118-.806z" fill="#F2BB88"/><path d="M12.61 11.102l.132 3.787h11.235l.988-.815.14-3.878h-11.96l-.536.906z" fill="#FFE4C2"/><path d="M11.02 16.337h13.86l.082-2.263H13.72a.452.452 0 01-.453-.436l-.125-3.442h-2.345l.223 6.141z" fill="#F2D1A5"/><path d="M30.4 28.36c-3.113 0-3.113.544-6.225.544-3.112 0-3.112-.543-6.224-.543-3.113 0-3.113.543-6.225.543-2.1 0-2.783-.247-3.962-.408l-1.358-1.04v-.906l1.358-.77c1.179.16 1.862.408 3.962.408 3.112 0 3.112-.543 6.225-.543 3.112 0 3.112.543 6.224.543s3.113-.543 6.225-.543v2.716z" fill="#87CDBB"/><path d="M7.763 25.78a16.15 16.15 0 00-2.263-.136v2.717c1.013 0 1.695.058 2.263.135V25.78zm32.541 20.465a.454.454 0 01-.428-.308c-.24-.695-.563-1.316-1-1.752a6.435 6.435 0 00-.052-.052.32.32 0 01-.003-.456l.002-.002c1.21-1.21 1.557-3.831 1.65-5.561a1.555 1.555 0 00-1.633-1.641c-.427.023-.909.062-1.41.125a.453.453 0 01-.51-.45v-.962l-1.177-1.233-1.087 1.037v11.707a1.805 1.805 0 00.66 1.398c.323.268.73.414 1.151.413H48.69c1 0 1.811-.81 1.811-1.81v-.453H40.304z" fill="#339F83"/><path d="M50.503 35.533c-2.64 0-2.64-.543-5.281-.543-2.641 0-2.641.543-5.282.543-1.569 0-2.206-.192-3.018-.348l-1.313-1.55 1.313-1.166c.813.156 1.45.348 3.018.348 2.64 0 2.64-.544 5.282-.544 2.64 0 2.64.544 5.281.544v2.716z" fill="#87CDBB"/><path d="M36.92 32.467c-.555-.105-1.194-.194-2.264-.194v2.717c1.07 0 1.71.088 2.265.193v-2.716z" fill="#339F83"/><path d="M32.242 39.36c1.226 1.226 1.405 2.691.794 3.866-.154.298-2.864 1.277-4.4-.26-1.153-1.152-1.207-2.253-1.23-3.544-.006-.392.384-1.405.83-1.367 1.369.114 3.136.436 4.006 1.305z" fill="#DAF1A1"/><path d="M29.535 42.061c-.87-.87-1.191-2.637-1.306-4.006a17.832 17.832 0 00-1.165-.059.693.693 0 00-.704.705c.022 1.291.211 4.019 1.364 5.171 1.536 1.537 3.448 1.429 4.694.183a3.31 3.31 0 00.729-1.082c-1.128.462-2.473.227-3.612-.912z" fill="#C9EB74"/><path d="M36.245 43.723c-.538.06-2.444-.209-2.884-.723-.767-.896-.86-2.483-.722-2.883.202-.59 1.113-1.647 1.847-1.85 1.183-.329 2.527-.406 3.324-.42a.693.693 0 01.704.704c-.018 1.064-.15 3.103-.84 4.433-.148.284-1.144.706-1.43.739z" fill="#DAF1A1"/><path d="M37.68 42.984a2.897 2.897 0 00-.48-.658c-1.052-1.052-2.28-1.333-3.35-1.005a.453.453 0 01-.582-.48 4.198 4.198 0 011.189-2.535l.044-.041c-.737.203-1.412.503-1.855.946-1.536 1.537-1.465 3.599-.22 4.844 1.123 1.123 2.82 1.187 4.266.075l.105-.083.021-.017a4.824 4.824 0 00.34-.307 2.98 2.98 0 00.523-.74z" fill="#C9EB74"/><path d="M33.787 47.482c-1.536-1.536-.412-4.211.091-4.36 1.063-.313 2.279-.028 3.321 1.015.894.894 1.208 2.734 1.315 4.118.03.4-.988 1.221-1.38 1.214-1.29-.022-2.194-.834-3.347-1.987z" fill="#DAF1A1"/><path d="M38.508 48.255c-1.012-.068-2.316-.245-3.312-.69a.451.451 0 01-.242-.546c.163-.53.195-1.075.108-1.609-.08-.497-.418-1.467-1.182-2.289-.456.133-.664.195-.995.5a3.48 3.48 0 00-.386.333c-1.246 1.246-1.354 3.158.183 4.695.18.18.399.337.645.473 1.325.734 3.437.872 4.526.89a.693.693 0 00.705-.704 17.875 17.875 0 00-.05-1.053z" fill="#C9EB74"/><path d="M29.546 44.925c.218.05.451.085.698.081 1.22-.017 2.017-.808 2.166-.962l.046.042c.652.654.897 1.496.939 1.923.089.919-.255 1.905-1.122 2.772-.732.732-2.1 1.075-3.33 1.234-.707.091-1.788-.776-1.495-2.841.26-1.836 1.227-2.453 2.098-2.25z" fill="#DAF1A1"/><path d="M28.662 49.44c.058-2.663.885-4.515.885-4.515s-.476-.098-.885-.336c-.49-.288-.71-.5-.71-.5s-.127.118-.19.18c-1.152 1.153-1.34 3.88-1.364 5.172a.693.693 0 00.705.704 17.137 17.137 0 001.848-.13.69.69 0 01-.289-.575z" fill="#C9EB74"/></svg>