<svg width="35" height="35" fill="none" xmlns="http://www.w3.org/2000/svg"><path d="M22.812 0H20.7l-4.193 5.282 4.222 5.517h1.584a.527.527 0 00.528-.528V3.405c0-.603.273-1.163.716-1.573a1.053 1.053 0 00.338-.827C23.869.437 23.38 0 22.812 0z" fill="#CCE5DF"/><path d="M21.436 1.832a1.055 1.055 0 00.338-.827C21.747.437 21.258 0 20.69 0h-8.386c-.568 0-1.057.437-1.084 1.005a1.056 1.056 0 00.338.827c.443.41.716.97.716 1.573v6.866a.528.528 0 00.528.528h1.584l6.334-7.394c0-.603.273-1.163.716-1.573z" fill="#E6F3EF"/><path d="M18.62 3.405l-2.112 9.507 4.222-2.113V3.405h-2.11z" fill="#73B9A7"/><path d="M14.39 3.405v7.394l4.223 2.113V3.405h-4.222z" fill="#73B9A7"/><path d="M18.62 10.8l-2.112 6.337h4.222V10.8h-2.11z" fill="#99F7FA"/><path d="M14.39 10.8h4.223v6.337h-4.222V10.8z" fill="#D9FDFF"/><path d="M26.01 12.912h-2.112V35h2.112a2.112 2.112 0 002.111-2.113V15.025a2.112 2.112 0 00-2.111-2.113z" fill="#CCE5DF"/><path d="M26.001 32.887v-4.105l-4.222-6.997L26 15.025a2.112 2.112 0 00-2.11-2.113H9.11A2.112 2.112 0 007 15.025v17.862C7 34.054 7.945 35 9.111 35h14.78A2.112 2.112 0 0026 32.887z" fill="#E6F3EF"/><path d="M23.9 15.025l-2.853 2.113v12.83l2.111.793a2.111 2.111 0 002.853-1.978V15.025H23.9z" fill="#1F8B6F"/><path d="M23.888 27.99V15.026H9.11v13.758a2.111 2.111 0 002.853 1.978l3.369-1.264a6.33 6.33 0 014.447 0l1.258.472a2.111 2.111 0 002.852-1.978z" fill="#73B9A7"/><path d="M17.563 7.63a1.056 1.056 0 100-2.111 1.056 1.056 0 000 2.112z" fill="#fff"/></svg>