<svg width="24" height="25" fill="none" xmlns="http://www.w3.org/2000/svg"><path d="M4.545 22.422l-.158-1.735a.634.634 0 00-.574-.574l-1.736-.158a.634.634 0 01-.39-1.08l7.166-7.166 3.938 3.938-7.167 7.166a.634.634 0 01-1.08-.39z" fill="#007F5F"/><path d="M8.854 11.709l-4.116 4.115c.412.497 1.166.736 1.622 1.192.508.509.748 1.387 1.374 1.75.477.275 1.109.202 1.697.241l3.36-3.36-3.937-3.938z" fill="#006B4B"/><path d="M19.455 22.422l.158-1.735a.633.633 0 01.574-.574l1.735-.158a.634.634 0 00.391-1.08l-7.166-7.166-3.938 3.938 7.167 7.166a.634.634 0 001.08-.39z" fill="#007F5F"/><path d="M19.262 15.824l-4.116-4.115-3.937 3.938 3.36 3.36c.588-.039 1.22.034 1.697-.242.626-.362.866-1.24 1.374-1.749.456-.456 1.21-.695 1.622-1.192z" fill="#006B4B"/><path d="M8.852 11.709l-.422.423 2.504 2.503a.234.234 0 010 .333l-6.479 6.478.089.976c.048.536.7.771 1.08.391l7.166-7.166-3.938-3.938zm13.46 7.167l-7.166-7.167-.634.634 5.333 5.333a.869.869 0 01-.536 1.48l-1.04.094a.869.869 0 00-.787.787l-.095 1.04a.856.856 0 01-.23.518l1.218 1.218a.634.634 0 001.08-.39l.157-1.736a.633.633 0 01.574-.574l1.736-.158c.535-.049.77-.7.39-1.08z" fill="#006B4B"/><path d="M20.531 10.531c0 .74-.642 1.384-.824 2.066-.189.705.04 1.583-.317 2.2-.363.627-1.241.866-1.75 1.375-.508.508-.747 1.386-1.373 1.749-.618.357-1.496.129-2.202.317-.681.182-1.326.825-2.065.825-.739 0-1.384-.643-2.065-.825-.705-.188-1.584.04-2.201-.317-.627-.363-.866-1.24-1.374-1.75-.509-.507-1.387-.747-1.75-1.373-.357-.618-.128-1.496-.317-2.201-.182-.682-.824-1.327-.824-2.066 0-.739.642-1.383.824-2.065.189-.705-.04-1.584.318-2.201.362-.626 1.24-.866 1.749-1.374.508-.508.747-1.387 1.374-1.75.617-.356 1.495-.128 2.2-.317C10.617 2.642 11.262 2 12 2c.74 0 1.384.642 2.065.824.706.189 1.584-.04 2.202.318.626.362.865 1.24 1.373 1.749.509.508 1.387.748 1.75 1.374.357.617.128 1.496.317 2.201.182.682.824 1.326.824 2.065z" fill="#FEE45A"/><path d="M12 17.94a6.563 6.563 0 100-13.126 6.563 6.563 0 000 13.126z" fill="#FEDF30"/><path d="M12 17.094a6.563 6.563 0 100-13.125 6.563 6.563 0 000 13.125z" fill="#FED402"/><path d="M12.612 7.165l.798 1.63a.682.682 0 00.51.374l1.836.277c.564.085.78.784.363 1.173l-1.312 1.225a.683.683 0 00-.206.619l.329 1.834a.682.682 0 01-1.003.716l-1.596-.888a.683.683 0 00-.663 0l-1.596.888a.682.682 0 01-1.003-.716l.329-1.834a.682.682 0 00-.206-.619L7.879 10.62a.682.682 0 01.364-1.173l1.835-.277a.681.681 0 00.511-.374l.798-1.63a.682.682 0 011.225 0z" fill="#FAC600"/><path d="M14.056 4.297A6.563 6.563 0 018.254 15.92a6.562 6.562 0 105.802-11.623z" fill="#FAC600"/><path d="M12.612 6.32l.798 1.629a.682.682 0 00.51.374l1.836.277c.564.086.78.784.363 1.174l-1.312 1.225a.683.683 0 00-.206.618l.329 1.834a.682.682 0 01-1.003.716l-1.596-.888a.683.683 0 00-.663 0l-1.596.888a.682.682 0 01-1.003-.716l.329-1.834a.682.682 0 00-.206-.619L7.879 9.774A.682.682 0 018.243 8.6l1.835-.277a.681.681 0 00.511-.374l.798-1.63a.682.682 0 011.225 0z" fill="#FFF844"/><path d="M15.756 8.601l-1.81-.273c.296.42.29 1.035-.145 1.441l-.519.485a1.098 1.098 0 00-.331.995l.134.749a1.096 1.096 0 01-.804 1.257.679.679 0 01.05.025l1.595.888a.682.682 0 001.003-.716l-.328-1.834a.681.681 0 01.206-.619l1.312-1.225a.682.682 0 00-.363-1.173z" fill="#F5ED3A"/></svg>