<svg width="32" height="32" fill="none" xmlns="http://www.w3.org/2000/svg"><path fill-rule="evenodd" clip-rule="evenodd" d="M6.273 4.666c-.889 0-1.609.72-1.609 1.609v19.449c0 .888.72 1.609 1.609 1.609h19.449a1.61 1.61 0 001.609-1.61V6.276c0-.889-.72-1.609-1.61-1.609H6.274zm3.479 7.04a1.966 1.966 0 100-3.933 1.966 1.966 0 000 3.932zm3.767 1.452h3.259v1.493s.884-1.768 3.29-1.768c2.146 0 3.925 1.057 3.925 4.28v6.796h-3.377v-5.973c0-1.9-1.015-2.11-1.789-2.11-1.605 0-1.88 1.385-1.88 2.358v5.725h-3.428v-10.8zm-2.053 0H8.038V23.96h3.428v-10.8z" fill="#000"/></svg>