<svg width="24" height="25" fill="none" xmlns="http://www.w3.org/2000/svg"><path d="M17.15 12.084h0a4.203 4.203 0 01-2.967-1.231s0 0 0 0m2.967 1.231l-4.122-4.198a4.128 4.128 0 001.208 2.914l-.053.053m2.967 1.231a4.198 4.198 0 002.969-1.23m-2.97 1.23l2.97-1.23m-5.936-.001a4.202 4.202 0 01-1.23-2.967h0c0-1.113.442-2.18 1.23-2.968m0 5.935V4.918m0 0a4.197 4.197 0 012.968-1.23m-2.969 1.23l2.969-1.23m2.968 7.167a4.198 4.198 0 001.23-2.968m-1.23 2.968l1.23-2.968m0 0a4.198 4.198 0 00-1.23-2.969m1.23 2.969l-1.23-2.969m0 0a4.198 4.198 0 00-2.968-1.23m2.968 1.23l-2.968-1.23m1.884 6.083h0c-.5.5-1.178.78-1.884.78h0a2.665 2.665 0 111.884-.78zm1.547 3.672h-6.863a.766.766 0 00-.766.767v6.862c0 .423.343.766.767.766h6.862a.767.767 0 00.766-.766V14.21a.767.767 0 00-.766-.767zm-.767 6.862h-5.329v-5.329h5.33v5.329zM10.827 3.689H3.965a.767.767 0 00-.767.766v6.862c0 .424.344.767.767.767h6.862a.767.767 0 00.767-.767V4.455a.767.767 0 00-.767-.766zm-.766 6.862H4.73V5.222h5.33v5.329zm.766 2.892H3.965a.767.767 0 00-.767.766v6.862c0 .423.344.767.767.767h6.862a.767.767 0 00.767-.767V14.21a.767.767 0 00-.767-.766zm-.766 6.861H4.73v-5.328h5.33v5.328z" fill="#fff" stroke="#fff" stroke-width=".15"/></svg>