<svg width="24" height="24" fill="none" xmlns="http://www.w3.org/2000/svg"><path fill-rule="evenodd" clip-rule="evenodd" d="M11.774 3.542c-4.568 0-8.27 3.799-8.27 8.484 0 4.685 3.703 8.483 8.27 8.483 4.568 0 8.271-3.798 8.271-8.483 0-4.685-3.703-8.484-8.27-8.484zM2 12.026C2 6.489 6.376 2 11.774 2c5.399 0 9.775 4.488 9.775 10.026 0 5.537-4.377 10.026-9.775 10.026C6.376 22.052 2 17.563 2 12.026z" fill="#fff"/><path fill-rule="evenodd" clip-rule="evenodd" d="M9.269 7.789c0-.426.336-.771.752-.771h2.506c1.634 0 3.258 1.114 3.258 2.827 0 1.714-1.624 2.828-3.258 2.828h-1.754v1.028h3.007c.415 0 .752.346.752.772a.762.762 0 01-.752.77h-3.007v1.286a.762.762 0 01-.752.771.762.762 0 01-.752-.77v-1.286h-.502a.762.762 0 01-.751-.771c0-.426.336-.772.752-.772h.5v-1.028h-.5a.762.762 0 01-.752-.771c0-.426.336-.771.752-.771h.5V7.789zm1.504 3.342h1.754c1.134 0 1.754-.728 1.754-1.286s-.62-1.285-1.754-1.285h-1.754v2.57z" fill="#fff"/></svg>