<svg width="25" height="25" fill="none" xmlns="http://www.w3.org/2000/svg"><path d="M19.999 5.886A4.832 4.832 0 0016.61 4.5c-1.684 0-3.224.888-4.11 2.293C11.614 5.388 10.074 4.5 8.39 4.5c-1.31 0-2.54.523-3.463 1.472A5.061 5.061 0 003.5 9.485c-.014 2.015 1.46 4.474 4.38 7.309a39.676 39.676 0 004.31 3.609.537.537 0 00.62-.001 39.957 39.957 0 004.289-3.609c2.907-2.833 4.387-5.29 4.4-7.301A4.945 4.945 0 0020 5.886zm-3.637 10.18a40.23 40.23 0 01-3.863 3.286 39.958 39.958 0 01-3.884-3.287c-2.67-2.594-4.074-4.867-4.063-6.573A4.062 4.062 0 015.693 6.67 3.736 3.736 0 018.39 5.519c1.616 0 3.067 1.06 3.611 2.638a.51.51 0 00.192.252.538.538 0 00.614 0A.511.511 0 0013 8.157c.544-1.578 1.995-2.638 3.611-2.638a3.77 3.77 0 012.643 1.085 3.948 3.948 0 011.195 2.88c-.012 1.71-1.425 3.985-4.086 6.581z" fill="#000" stroke="#000" stroke-width=".5"/><path d="M18.018 7.436a2.666 2.666 0 00-1.998-.509.526.526 0 10.161 1.04 1.62 1.62 0 011.213.317c.434.32.72.806.803 1.37.043.287.31.485.598.442h.003a.526.526 0 00.44-.597 3.098 3.098 0 00-1.22-2.063z" fill="#000" stroke="#000" stroke-width=".5"/></svg>