<svg width="24" height="25" fill="none" xmlns="http://www.w3.org/2000/svg"><path d="M12.002 2h-.072a9.932 9.932 0 00-7.051 2.98A9.93 9.93 0 002 12.07C2.04 17.545 6.525 22 12 22h.073a9.926 9.926 0 007.049-2.979A9.93 9.93 0 0022 11.93C21.96 6.454 17.477 2 12.002 2zm.062 18.84H12c-4.84 0-8.806-3.937-8.84-8.778-.001-.082.01-.164.01-.246.308.564.729.855 1.266 1.09.88.384 1.348.099 1.468 2.864.126 2.908 3.236 2.95 2.899 1.893-.274-.858-.307-2.044.564-2.828.871-.786.52-2.163-1.045-3.222-1.565-1.06-1.312-3.513-.653-3.696.557-.155 2.612.978 2.053-1.032-.414-1.49-2.36-1.548-3.243-1.782a8.743 8.743 0 013.916-1.791c.14.17.38.335.794.417 1.072.213 1.62.746 2.01 1.184.366.407 3.166 2.874 4.63.452a8.89 8.89 0 012.514 3.713c-.634-.121-1.565-.206-2.104.183-.871.631-.963 1.605-2.226 1.907-1.264.3-4.228 1.101-4 2.365.228 1.265-.06 1.851 1.402 2.034 1.462.185 2.53-.213 2.635.761.105.974-1.69 1.083-1.466 2.055.179.784 1.43.926 3.047.434a8.776 8.776 0 01-5.567 2.023z" fill="#fff"/></svg>