<svg width="123" height="30" fill="none" xmlns="http://www.w3.org/2000/svg"><g clip-path="url(#clip0_2702_84049)" fill="#000" stroke="#000" stroke-width=".339" stroke-linecap="round"><path d="M0 2.638v-.255h16.15V5.34h-.257v-.118s-.036-.06-.036-.098c-.23-.865-.559-1.396-.97-1.592-.413-.197-1.053-.295-1.905-.295h-8.23v11.094h7.662c.66 0 1.108-.049 1.346-.157s.385-.334.412-.688h.257v2.408h-.257c0-.58-.384-.875-1.144-.875H4.752v10.044c0 .943.146 1.552.439 1.827.293.276.796.413 1.52.413v.256H0v-.256c.787 0 1.282-.147 1.492-.442.21-.295.312-.708.312-1.248V4.908c0-.845-.12-1.434-.367-1.769C1.2 2.805.723 2.64 0 2.64zm21.398 0v-.255h7.242c1.84 0 3.168.04 3.983.118.824.078 1.657.344 2.517.796.861.452 1.511 1.061 1.95 1.828.44.766.66 1.72.66 2.83 0 1.277-.394 2.496-1.172 3.655-.778 1.16-1.877 2.133-3.296 2.939l1.804 2.732c.393.687 1.437 2.181 3.13 4.49 1.694 2.31 3.003 3.725 3.928 4.226.925.501 1.822.757 2.683.757.86 0 1.84-.325 2.948-.973l.1.344c-1.382 1.12-3.186 1.68-5.401 1.68-1.474 0-2.747-.432-3.809-1.297-1.062-.865-2.911-3.233-5.539-7.105a.087.087 0 01-.036-.069l-2.564-3.901-2.27.069h-2.07v9.63c0 .777.101 1.327.312 1.661.201.334.705.501 1.492.501v.256h-6.582v-.256c.824-.03 1.327-.206 1.528-.51.202-.305.303-.934.303-1.878V4.908c0-.648-.083-1.189-.257-1.611-.174-.423-.695-.649-1.574-.659h-.01zm4.78.413v11.812h2.673c2.105 0 3.671-.491 4.687-1.474 1.016-.983 1.53-2.27 1.53-3.862s-.504-3.017-1.502-4.402C32.568 3.739 30.8 3.05 28.283 3.05h-2.106z" stroke-miterlimit="10"/><path d="M90.89 27.314v.256H80.6c-1.978 0-3.708-.207-5.191-.63-1.483-.422-2.994-1.218-4.541-2.397a13.7 13.7 0 01-3.744-4.402c-.953-1.76-1.429-3.548-1.429-5.386 0-2.004.595-4.01 1.795-6.004 1.2-1.995 2.893-3.616 5.1-4.864 2.206-1.248 4.705-1.867 7.497-1.867 2.509 0 5.155.55 7.956 1.64l1.053 2.91h-.256c-.888-1.12-2.106-2.045-3.644-2.782-1.538-.737-3.26-1.1-5.154-1.1-3.287 0-5.988 1.218-8.085 3.665-2.096 2.447-3.149 5.484-3.149 9.11 0 1.503.174 2.85.522 4.029.348 1.18.998 2.339 1.95 3.488.952 1.15 1.977 1.985 3.067 2.536 1.09.54 2.316.914 3.662 1.13 1.355.206 2.426.305 3.223.285l1.373-.03c1.547-.058 2.518-.196 2.902-.432.385-.226.577-.806.577-1.74v-3.812c0-.737-.156-1.238-.467-1.494-.311-.255-.76-.363-1.337-.334v-.255h6.601v.255c-.741 0-1.236.138-1.483.423-.247.285-.375.835-.375 1.64v3.96c0 .797.11 1.367.32 1.72.21.354.604.521 1.172.521h.366l.01-.039zm3.749-7.065h.622c.028 2.427.605 4.117 1.73 5.08 1.127.963 2.894 1.435 5.283 1.435 2.17 0 3.818-.511 4.944-1.523s1.685-2.23 1.685-3.656c0-.865-.193-1.602-.586-2.21-.394-.61-.943-1.15-1.648-1.613-.705-.461-2.042-1.021-4.001-1.69-1.95-.678-3.323-1.267-4.11-1.778-.797-.511-1.456-1.268-1.987-2.29-.531-1.022-.797-2.054-.797-3.115 0-1.946.678-3.577 2.033-4.904C99.162 2.668 100.947 2 103.153 2c.852 0 1.776.098 2.774.295.989.196 1.547.324 1.666.373.046.02.092.04.138.04l1.208 3.144-.21.04s-.321-.344-.962-1.013a6.803 6.803 0 00-2.197-1.533c-.824-.363-1.758-.54-2.801-.54-1.74 0-3.131.491-4.148 1.484-1.025.982-1.528 2.171-1.528 3.567 0 .924.237 1.73.723 2.417.476.688 1.483 1.337 3.003 1.926 2.618.875 4.412 1.524 5.374 1.966.961.442 1.895 1.179 2.792 2.23.897 1.052 1.346 2.389 1.346 4.03 0 .688-.083 1.336-.238 1.955a6.706 6.706 0 01-.778 1.799c-.357.58-.788 1.1-1.291 1.572-.504.472-1.016.835-1.529 1.071-.522.246-1.337.432-2.463.55-1.126.118-1.858.187-2.215.187-4.578.03-7.416-2.191-7.178-7.321v.01z" stroke-linejoin="round"/><path d="M122.677 2.383v.255c-.338-.039-.705.02-1.117.158-.412.137-.65.334-.723.599-.073.265-.11.884-.11 1.867v19.32c0 1.052.046 1.69.128 1.926.083.236.257.423.504.58.247.157.687.226 1.327.226v.255h-6.811v-.255c.851 0 1.382-.157 1.593-.482.211-.324.311-1.061.311-2.21V5.477c0-1.199-.119-1.975-.348-2.348-.228-.374-.75-.531-1.556-.482v-.255h6.811l-.009-.01z" stroke-miterlimit="10"/><path d="M63.692 25.87c-.467-.963-.696-1.504-.696-1.622L53.887 2.01h-.458l-9 22.415c.275.197.605.315.962.354l3.58-8.805h7.489l3.652 8.942s.028.06.055.168a.605.605 0 00.12.226c.265.629.402 1.08.402 1.366 0 .422-.274.628-.815.628v.256h5.96v-.256c-.952 0-1.666-.481-2.133-1.444l-.009.01zM49.218 15.276l3.451-8.589 3.452 8.59h-6.903z" stroke-linejoin="round"/></g><defs><clipPath id="clip0_2702_84049"><path fill="#fff" d="M0 0h123v30H0z"/></clipPath></defs></svg>