<svg width="32" height="32" fill="none" xmlns="http://www.w3.org/2000/svg"><path d="M14 27.867C8.333 26.867 4 21.933 4 16 4 9.4 9.4 4 16 4s12 5.4 12 12c0 5.933-4.333 10.867-10 11.867l-.667-.534h-2.666l-.667.534z" fill="url(#paint0_linear_2702_79048)"/><path d="M20.667 19.333l.533-3.334H18v-2.333c0-.933.333-1.667 1.8-1.667h1.533V8.933c-.866-.134-1.8-.267-2.666-.267-2.734 0-4.667 1.667-4.667 4.667v2.666h-3v3.334h3v8.466a10.125 10.125 0 004 0v-8.466h2.667z" fill="#fff"/><defs><linearGradient id="paint0_linear_2702_79048" x1="16" y1="27.169" x2="16" y2="4" gradientUnits="userSpaceOnUse"><stop stop-color="#0062E0"/><stop offset="1" stop-color="#19AFFF"/></linearGradient></defs></svg>