<svg width="32" height="32" fill="none" xmlns="http://www.w3.org/2000/svg"><path d="M16.004 4.363c-3.16 0-3.557.014-4.798.07-1.239.057-2.084.253-2.824.541a5.698 5.698 0 00-2.061 1.342 5.712 5.712 0 00-1.343 2.061c-.289.74-.485 1.586-.54 2.824-.056 1.242-.07 1.638-.07 4.799 0 3.16.013 3.555.07 4.797.056 1.238.253 2.084.54 2.824a5.702 5.702 0 001.342 2.061 5.698 5.698 0 002.06 1.343c.741.288 1.587.484 2.825.54 1.242.057 1.638.071 4.798.071s3.555-.014 4.797-.07c1.238-.057 2.085-.253 2.825-.54a5.694 5.694 0 002.06-1.344 5.713 5.713 0 001.343-2.061c.286-.74.483-1.586.54-2.824.056-1.242.071-1.637.071-4.797 0-3.16-.015-3.557-.07-4.798-.058-1.24-.255-2.085-.54-2.825a5.712 5.712 0 00-1.344-2.061 5.687 5.687 0 00-2.06-1.342c-.742-.288-1.588-.484-2.827-.54-1.241-.057-1.636-.07-4.797-.07h.003zM14.96 6.46h1.044c3.107 0 3.475.011 4.702.067 1.135.052 1.75.242 2.16.4.544.212.93.464 1.338.871.407.407.66.795.87 1.338.16.41.35 1.026.401 2.16.056 1.227.068 1.596.068 4.701 0 3.105-.012 3.474-.068 4.7-.052 1.135-.241 1.75-.4 2.16-.212.544-.464.93-.871 1.337a3.58 3.58 0 01-1.338.87c-.41.16-1.025.35-2.16.402-1.226.055-1.595.067-4.702.067s-3.475-.012-4.702-.067c-1.134-.053-1.75-.242-2.16-.402a3.605 3.605 0 01-1.339-.87 3.607 3.607 0 01-.87-1.337c-.16-.41-.35-1.026-.401-2.16-.056-1.227-.067-1.595-.067-4.703 0-3.107.011-3.474.067-4.7.052-1.135.241-1.75.4-2.161.212-.543.464-.93.871-1.338a3.62 3.62 0 011.339-.871c.41-.16 1.026-.35 2.16-.401 1.074-.049 1.49-.063 3.658-.066v.003zm7.255 1.932a1.396 1.396 0 100 2.794 1.396 1.396 0 000-2.794zm-6.21 1.632a5.976 5.976 0 100 11.952 5.976 5.976 0 00-.001-11.952zm0 2.097a3.879 3.879 0 110 7.757 3.879 3.879 0 010-7.757z" fill="url(#paint0_radial_2702_79023)"/><path d="M16.004 4.363c-3.16 0-3.557.014-4.798.07-1.239.057-2.084.253-2.824.541a5.698 5.698 0 00-2.061 1.342 5.712 5.712 0 00-1.343 2.061c-.289.74-.485 1.586-.54 2.824-.056 1.242-.07 1.638-.07 4.799 0 3.16.013 3.555.07 4.797.056 1.238.253 2.084.54 2.824a5.702 5.702 0 001.342 2.061 5.698 5.698 0 002.06 1.343c.741.288 1.587.484 2.825.54 1.242.057 1.638.071 4.798.071s3.555-.014 4.797-.07c1.238-.057 2.085-.253 2.825-.54a5.694 5.694 0 002.06-1.344 5.713 5.713 0 001.343-2.061c.286-.74.483-1.586.54-2.824.056-1.242.071-1.637.071-4.797 0-3.16-.015-3.557-.07-4.798-.058-1.24-.255-2.085-.54-2.825a5.712 5.712 0 00-1.344-2.061 5.687 5.687 0 00-2.06-1.342c-.742-.288-1.588-.484-2.827-.54-1.241-.057-1.636-.07-4.797-.07h.003zM14.96 6.46h1.044c3.107 0 3.475.011 4.702.067 1.135.052 1.75.242 2.16.4.544.212.93.464 1.338.871.407.407.66.795.87 1.338.16.41.35 1.026.401 2.16.056 1.227.068 1.596.068 4.701 0 3.105-.012 3.474-.068 4.7-.052 1.135-.241 1.75-.4 2.16-.212.544-.464.93-.871 1.337a3.58 3.58 0 01-1.338.87c-.41.16-1.025.35-2.16.402-1.226.055-1.595.067-4.702.067s-3.475-.012-4.702-.067c-1.134-.053-1.75-.242-2.16-.402a3.605 3.605 0 01-1.339-.87 3.607 3.607 0 01-.87-1.337c-.16-.41-.35-1.026-.401-2.16-.056-1.227-.067-1.595-.067-4.703 0-3.107.011-3.474.067-4.7.052-1.135.241-1.75.4-2.161.212-.543.464-.93.871-1.338a3.62 3.62 0 011.339-.871c.41-.16 1.026-.35 2.16-.401 1.074-.049 1.49-.063 3.658-.066v.003zm7.255 1.932a1.396 1.396 0 100 2.794 1.396 1.396 0 000-2.794zm-6.21 1.632a5.976 5.976 0 100 11.952 5.976 5.976 0 00-.001-11.952zm0 2.097a3.879 3.879 0 110 7.757 3.879 3.879 0 010-7.757z" fill="url(#paint1_radial_2702_79023)"/><defs><radialGradient id="paint0_radial_2702_79023" cx="0" cy="0" r="1" gradientUnits="userSpaceOnUse" gradientTransform="matrix(0 -23.065 21.4514 0 10.549 29.428)"><stop stop-color="#FD5"/><stop offset=".1" stop-color="#FD5"/><stop offset=".5" stop-color="#FF543E"/><stop offset="1" stop-color="#C837AB"/></radialGradient><radialGradient id="paint1_radial_2702_79023" cx="0" cy="0" r="1" gradientUnits="userSpaceOnUse" gradientTransform="matrix(2.02356 10.10957 -41.67063 8.3409 .469 6.04)"><stop stop-color="#3771C8"/><stop offset=".128" stop-color="#3771C8"/><stop offset="1" stop-color="#60F" stop-opacity="0"/></radialGradient></defs></svg>