<svg width="32" height="32" fill="none" xmlns="http://www.w3.org/2000/svg"><g clip-path="url(#clip0_2702_79038)"><path d="M11.1 0h9.817C29.883 0 32 2.133 32 11.1v9.817C32 29.883 29.867 32 20.9 32h-9.817C2.117 32 0 29.867 0 20.9v-9.817C0 2.133 2.133 0 11.1 0z" fill="#5181B8"/><mask id="mask0_2702_79038" style="mask-type:luminance" maskUnits="userSpaceOnUse" x="0" y="0" width="32" height="32"><path d="M11.1 0h9.817C29.883 0 32 2.133 32 11.1v9.817C32 29.883 29.867 32 20.9 32h-9.817C2.117 32 0 29.867 0 20.9v-9.817C0 2.133 2.133 0 11.1 0z" fill="#fff"/></mask><g mask="url(#mask0_2702_79038)"><path d="M-.836-.834h33.667v33.667H-.836V-.834z" fill="#5181B8"/></g><path fill-rule="evenodd" clip-rule="evenodd" d="M26.2 11.016c.15-.5 0-.85-.7-.85h-2.333c-.6 0-.867.317-1.017.667 0 0-1.183 2.9-2.866 4.766-.55.55-.784.717-1.083.717-.15 0-.367-.167-.367-.667v-4.633c0-.6-.167-.85-.667-.85H13.5c-.366 0-.6.283-.6.533 0 .567.834.7.934 2.267v3.433c0 .75-.133.884-.434.884-.783 0-2.716-2.9-3.85-6.234-.233-.616-.45-.883-1.05-.883H6.168c-.666 0-.8.317-.8.667 0 .616.784 3.683 3.684 7.733 1.933 2.767 4.65 4.267 7.116 4.267 1.483 0 1.667-.334 1.667-.9v-2.1c0-.667.133-.8.617-.8.35 0 .933.166 2.316 1.5 1.584 1.583 1.85 2.3 2.733 2.3h2.334c.666 0 1-.334.8-.984-.217-.65-.967-1.6-1.967-2.733-.55-.65-1.367-1.333-1.6-1.683-.35-.45-.25-.65 0-1.034 0-.016 2.85-4.016 3.134-5.383z" fill="#fff"/></g><defs><clipPath id="clip0_2702_79038"><path fill="#fff" d="M0 0h32v32H0z"/></clipPath></defs></svg>