<svg width="32" height="32" fill="none" xmlns="http://www.w3.org/2000/svg"><path fill-rule="evenodd" clip-rule="evenodd" d="M26.361 10.784c.01.233.013.466.013.7 0 7.07-4.974 15.23-14.068 15.23-2.793 0-5.39-.89-7.58-2.405.387.042.78.074 1.18.074 2.316 0 4.449-.859 6.141-2.3-2.163-.032-3.99-1.59-4.62-3.71.302.064.614.095.932.095.45 0 .885-.063 1.303-.19-2.263-.488-3.969-2.65-3.969-5.247v-.063a4.784 4.784 0 002.242.667c-1.328-.964-2.202-2.607-2.202-4.462 0-.975.244-1.897.672-2.692 2.438 3.243 6.082 5.374 10.191 5.596a5.82 5.82 0 01-.128-1.219c0-2.957 2.214-5.352 4.945-5.352 1.422 0 2.707.646 3.608 1.685a9.28 9.28 0 003.142-1.293c-.37 1.25-1.153 2.3-2.176 2.957 1-.127 1.955-.413 2.84-.837a10.565 10.565 0 01-2.466 2.766z" fill="#1EA1F2"/></svg>