<svg width="32" height="32" fill="none" xmlns="http://www.w3.org/2000/svg"><path d="M16 28c6.627 0 12-5.373 12-12S22.627 4 16 4 4 9.373 4 16s5.373 12 12 12z" fill="url(#paint0_linear_2702_79027)"/><path d="M13.803 21.5c-.389 0-.323-.147-.457-.517l-1.143-3.762 8.8-5.221" fill="#C8DAEA"/><path d="M13.797 21.5c.3 0 .432-.137.6-.3l1.6-1.555L14 18.44" fill="#A9C9DD"/><path d="M14.003 18.442l4.836 3.573c.552.304.95.146 1.087-.513l1.969-9.276c.201-.808-.308-1.175-.836-.935l-11.56 4.457c-.788.317-.784.757-.143.953l2.966.926 6.868-4.333c.324-.196.621-.09.377.126" fill="url(#paint1_linear_2702_79027)"/><defs><linearGradient id="paint0_linear_2702_79027" x1="20.001" y1="8.001" x2="14.001" y2="22" gradientUnits="userSpaceOnUse"><stop stop-color="#37AEE2"/><stop offset="1" stop-color="#1E96C8"/></linearGradient><linearGradient id="paint1_linear_2702_79027" x1="17.499" y1="16.001" x2="19.377" y2="20.274" gradientUnits="userSpaceOnUse"><stop stop-color="#EFF7FC"/><stop offset="1" stop-color="#fff"/></linearGradient></defs></svg>